# xmcd
#
# Track frame offsets:
#	150
#	16194
#	32271
#	47115
#	63232
#	75702
#	92027
#	106328
#	120338
#	135817
#	150594
#
# Disc length: 2224 seconds
#
# Revision: 0
# Processed by: cddbd v1.5.2PL0 Copyright (c) Steve Scherf et al.
# Submitted via: FairStars CD Ripper 1.90
#
DISCID=7108ae0b
DTITLE=Trent Harmon - You Got 'Em All
DYEAR=2018
DGENRE=Country
TTITLE0=You Got 'Em All
TTITLE1=There's A Girl
TTITLE2=Hold On
TTITLE3=Her
TTITLE4=First Five Minutes
TTITLE5=Money's On You
TTITLE6='Cause I Do
TTITLE7=On Paper
TTITLE8=My Somebody
TTITLE9=Falling
TTITLE10=Chandelier
EXTD=
EXTT0=
EXTT1=
EXTT2=
EXTT3=
EXTT4=
EXTT5=
EXTT6=
EXTT7=
EXTT8=
EXTT9=
EXTT10=
PLAYORDER=
